# xmcd CD database file
#
# Track frame offsets:
#	150
#	11731
#	30621
#	43996
#	59541
#	74943
#	89326
#	106925
#	121499
#	138242
#	159604
#	183925
#	197219
#	210947
#	224303
#	242146
#	257613
#	272085
#	294755
#	308382
#	320720
#	331936
#	341335
#
# Disc length: 4752 seconds
#
# Revision: 0
# Processed by: cddbd v1.5.2PL0 Copyright (c) Steve Scherf et al.
# Submitted via: CDex 1.51
#
DISCID=59128e17
DTITLE=Rozni wykonawcy - Antologia Polskiego Bluesa 3 - CD3 6 strun i palce
DYEAR=2011
DGENRE=Blues
TTITLE0=Bogdan Szweda - Cross Road Blues
TTITLE1=Jacek Zaitz (QuBee) - Dead Flowers
TTITLE2=Witold Jakalski (Nocna Zmiana Bluesa) - Harmonijkowy as
TTITLE3=Kajetan Drozd (Kajetan Drozd Acoustic Trio) - I Have A Woman
TTITLE4=Jacek Spruch (G2 plus 2) - When Daddy Played His Guitar
TTITLE5=Jacek Herzberg (Green Grass) - Golebi szmer
TTITLE6=Michal Limboski Augustyniak - Hellhound On My Trail
TTITLE7=Pawel Szymanski - Naprawde Cie lubie
TTITLE8=Piotr Rucinski - Delta
TTITLE9=Romek Puchowski - Canned Heat Blues
TTITLE10=Aleksandra Siemieniuk (Proud Mary) - Saturday Night Stroll
TTITLE11=Arek Korolik - New Age Woman Blues
TTITLE12=Marek Motyka (Marek Makaron Trio) - Fajne zycie miales
TTITLE13=Marek Dabrowski (Nocna Zmiana Bluesa) - Piosenka bardzo optymistyczna
TTITLE14=Tomasz Kruk (Przytula and Kruk) - Prayer
TTITLE15=Blazej Pawlina (Werbinska and Pawlina) - Hold On The Wind
TTITLE16=Piotr Slapa - Broken Wing
TTITLE17=Maciej Malczyszyn (Terraplane) - Git Me Some
TTITLE18=Miroslaw Stanislawowicz - See See Rider
TTITLE19=Mirek Rzepa (Lapka Rzepa Gluch) - Bad Romance
TTITLE20=Leszek Winder - Blues okularnika
TTITLE21=Jacek Skubikowski - Folsom Prison Blues
TTITLE22=Pawel Ostafil - Someday Baby
EXTD=YEAR: 2011
EXTT0=
EXTT1=
EXTT2=
EXTT3=
EXTT4=
EXTT5=
EXTT6=
EXTT7=
EXTT8=
EXTT9=
EXTT10=
EXTT11=
EXTT12=
EXTT13=
EXTT14=
EXTT15=
EXTT16=
EXTT17=
EXTT18=
EXTT19=
EXTT20=
EXTT21=
EXTT22=
PLAYORDER=
